<svg xmlns="http://www.w3.org/2000/svg" viewBox="0 0 146.13 110.59"><defs><style>.cls-1{fill:#707070;stroke:#1d1d1b;}.cls-1,.cls-2{stroke-miterlimit:10;}.cls-2{fill:#3068b1;stroke:#020202;}</style></defs><g id="Layer_2" data-name="Layer 2"><g id="Layer_1-2" data-name="Layer 1"><path class="cls-1" d="M145.63,41.87a30,30,0,0,0-30-30h-.46a35.66,35.66,0,0,0-53.31,1.21,30,30,0,0,0-36,16.84A21.17,21.17,0,1,0,19.14,71.7v.17H119.66v-.28A30,30,0,0,0,145.63,41.87Z"/><path class="cls-2" d="M66.27,100.09c-1.3,2.27-4.7,3.26-7.29,2.52-4.13-1.18-5.25-6.34-5.49-7.42-.94-4.32.83-7.9,2.07-10.39,1.69-3.43,4.33-6.49,4.86-6.2.26.15-.31,1-.41,2.59-.18,2.66,1.16,4.82,2.45,6.9,1.47,2.36,2.09,2.43,3.29,4.84a8.77,8.77,0,0,1,1.16,3.94A6.1,6.1,0,0,1,66.27,100.09Z"/><path class="cls-2" d="M91.45,107.33c-1.29,2.27-4.7,3.26-7.29,2.52-4.12-1.18-5.25-6.35-5.49-7.42-.94-4.32.84-7.9,2.07-10.39,1.7-3.43,4.33-6.5,4.87-6.2.25.15-.31,1-.42,2.58-.18,2.67,1.17,4.83,2.45,6.91,1.47,2.36,2.09,2.43,3.3,4.84a9,9,0,0,1,1.16,3.94A6.13,6.13,0,0,1,91.45,107.33Z"/><path class="cls-2" d="M116.11,98.54c-1.3,2.27-4.7,3.26-7.29,2.52-4.13-1.18-5.25-6.35-5.49-7.42-.94-4.32.83-7.9,2.06-10.39,1.7-3.43,4.34-6.5,4.87-6.2.26.15-.31,1-.41,2.58-.18,2.67,1.16,4.83,2.45,6.91,1.47,2.36,2.09,2.43,3.29,4.84a8.77,8.77,0,0,1,1.16,3.93A6.15,6.15,0,0,1,116.11,98.54Z"/><path class="cls-2" d="M43.43,102.19c-1.3,2.27-4.7,3.26-7.3,2.52-4.12-1.18-5.25-6.35-5.48-7.42-.94-4.32.83-7.9,2.06-10.39,1.7-3.43,4.34-6.5,4.87-6.2.26.14-.31,1-.41,2.58C37,86,38.33,88.11,39.62,90.19c1.47,2.36,2.09,2.43,3.29,4.84A8.87,8.87,0,0,1,44.07,99,6.15,6.15,0,0,1,43.43,102.19Z"/></g></g></svg>