<svg xmlns="http://www.w3.org/2000/svg" viewBox="0 0 146.13 117.33"><defs><style>.cls-1{fill:#69a3d8;}.cls-2{fill:#efefef;stroke:#1d1d1b;stroke-miterlimit:10;}</style></defs><g id="Layer_2" data-name="Layer 2"><g id="Layer_1-2" data-name="Layer 1"><path class="cls-1" d="M113.18,88.79l-.64-.36.53-.23a.21.21,0,0,0,.11-.28h0a.21.21,0,0,0-.28-.11l-.84.36-.55-.3,1.41-.62A.21.21,0,0,0,113,87h0a.22.22,0,0,0-.29-.11l-1.72.75-.67-.38,2.93-1.28a.21.21,0,0,0,.11-.28h0a.21.21,0,0,0-.28-.11l-3.24,1.41-.6-.34L113,85l-3.82-1.72.6-.35h0l3.29,1.34a.22.22,0,0,0,.28-.12h0a.22.22,0,0,0-.12-.28l-3-1.21.67-.4,1.76.72a.22.22,0,0,0,.28-.12h0a.22.22,0,0,0-.12-.28l-1.44-.59.54-.32.87.35a.21.21,0,0,0,.28-.11h0a.22.22,0,0,0-.12-.28l-.56-.23.77-.45a.34.34,0,0,0,.12-.46h0a.34.34,0,0,0-.46-.12l-.77.46.07-.63a.22.22,0,0,0-.19-.24h0a.22.22,0,0,0-.24.19l-.11,1-.54.32.18-1.58a.22.22,0,0,0-.19-.24h0a.21.21,0,0,0-.23.19l-.23,1.91-.67.4.38-3.23a.22.22,0,0,0-.19-.24h0a.22.22,0,0,0-.24.19l-.41,3.52v0l-.64.38.5-4.27-3.48,2.5v-.76h0L108.66,78a.21.21,0,0,0,0-.3h0a.22.22,0,0,0-.3,0l-2.57,2v-.78l1.51-1.15a.2.2,0,0,0,0-.3h0a.22.22,0,0,0-.3,0l-1.25,1v-.64l.75-.56a.22.22,0,0,0,0-.3h0a.22.22,0,0,0-.3,0l-.48.36v-.88a.34.34,0,0,0-.33-.34h0a.34.34,0,0,0-.34.34v.89l-.5-.38a.22.22,0,0,0-.3,0h0a.22.22,0,0,0,0,.3l.77.58v.63l-1.26-1a.22.22,0,0,0-.3,0h0a.22.22,0,0,0,0,.3l1.53,1.17v.77l-2.58-2a.22.22,0,0,0-.3,0h0a.22.22,0,0,0,0,.3l2.83,2.14,0,0v.72l-3.38-2.52.44,4.29-.68-.39h0l-.5-3.51a.2.2,0,0,0-.24-.18h0a.2.2,0,0,0-.18.24l.45,3.19-.68-.38-.27-1.88a.2.2,0,0,0-.24-.18h0a.2.2,0,0,0-.18.24l.22,1.55-.56-.31-.13-.93a.2.2,0,0,0-.24-.18h0a.21.21,0,0,0-.18.24l.08.6-.77-.43a.33.33,0,0,0-.46.12h0a.34.34,0,0,0,.13.46l.78.44-.58.25a.22.22,0,0,0-.11.28h0a.21.21,0,0,0,.28.11l.88-.38.55.31-1.45.63a.21.21,0,0,0-.11.28h0a.21.21,0,0,0,.28.11l1.76-.76.68.38-3,1.29a.21.21,0,0,0-.11.28h0a.21.21,0,0,0,.28.11l3.25-1.41,0,0,.61.34L98,84.86l4.09,1.84-.84.49h0l-3.28-1.34a.21.21,0,0,0-.28.11h0a.21.21,0,0,0,.12.28l3,1.23-.67.4-1.78-.73a.21.21,0,0,0-.28.12h0a.2.2,0,0,0,.11.27l1.48.61-.55.32-.89-.37a.22.22,0,0,0-.28.12h0a.21.21,0,0,0,.11.28l.59.24-.62.36a.33.33,0,0,0-.11.46h0a.33.33,0,0,0,.46.12l.63-.37-.07.58a.21.21,0,0,0,.19.24h0a.21.21,0,0,0,.23-.19l.11-.91.54-.32-.17,1.53a.21.21,0,0,0,.18.24h0a.22.22,0,0,0,.24-.19l.22-1.86.67-.4-.37,3.18a.21.21,0,0,0,.19.23h0a.21.21,0,0,0,.24-.18l.4-3.51.57-.34-.46,4,3.47-2.51v.83l0,0-2.82,2.14a.22.22,0,0,0,0,.3h0a.21.21,0,0,0,.3,0l2.58-2v.78l-1.53,1.16a.21.21,0,0,0,0,.3h0a.22.22,0,0,0,.3,0l1.27-1v.63l-.77.59a.22.22,0,0,0,0,.3h0a.2.2,0,0,0,.3,0l.5-.38v.72a.34.34,0,0,0,.34.33h0a.33.33,0,0,0,.33-.33v-.73l.47.35a.22.22,0,0,0,.3,0h0a.2.2,0,0,0,0-.3l-.73-.56v-.63l1.23.94a.21.21,0,0,0,.3,0h0a.22.22,0,0,0,0-.3L105.83,91v-.78l2.55,1.94a.22.22,0,0,0,.3,0h0a.22.22,0,0,0,0-.3l-2.82-2.14V89l3.38,2.51-.44-4.37.78.44a.06.06,0,0,0,0,0l.49,3.51a.2.2,0,0,0,.24.18h0a.21.21,0,0,0,.18-.24L110,87.8l.68.38.27,1.91a.21.21,0,0,0,.24.18h0a.21.21,0,0,0,.18-.24l-.22-1.58.55.31.14,1a.22.22,0,0,0,.24.18h0a.22.22,0,0,0,.18-.25l-.09-.62.63.35a.34.34,0,0,0,.46-.13h0A.34.34,0,0,0,113.18,88.79ZM111.9,85l-3.14,1.36-.65-.36,2.33-1-2.34-1,.62-.36Zm-4.55,3.23-1.52-1.13V85.45l1.32.74Zm-3.71-6.54,1.52,1.13V84.3l-1.32-.74Zm2.68,3.3,1.28-.75,1.66.75-1.67.71Zm.85-1.28-1.34.79V82.81l1.57-1.13ZM105,85l-1.32.78-1.92-.86,1.75-.75Zm-1.19,1.48,1.37-.81V87l-1.56,1.13Zm4.95-7L108.32,83l-.64.38.32-2.71-2.17,1.56v-.73Zm-6.4-.05,2.82,2.1v.74l-2.1-1.57.27,2.66-.63-.35ZM99.1,84.87l3.22-1.39.64.36-2.4,1,2.59,1.17-.62.37Zm3.16,5.57.38-3.31.64-.37L103,89.18l2.16-1.56v.72Zm6.4,0-2.83-2.1v-.73l2.11,1.56-.28-2.74.63.35Z"/><path class="cls-2" d="M145.63,41.87a30,30,0,0,0-30-30h-.46a35.66,35.66,0,0,0-53.31,1.21,30,30,0,0,0-36,16.84A21.17,21.17,0,1,0,19.14,71.7v.17H119.66v-.28A30,30,0,0,0,145.63,41.87Z"/><path class="cls-1" d="M77.85,98.13l-.66-.36.56-.24a.22.22,0,0,0,.11-.29h0a.22.22,0,0,0-.3-.12l-.86.38-.57-.32,1.46-.63a.22.22,0,0,0,.11-.29h0a.22.22,0,0,0-.29-.12l-1.77.77-.7-.39,3-1.31a.22.22,0,0,0,.11-.29h0a.23.23,0,0,0-.29-.12l-3.34,1.46-.62-.35,3.87-1.68-3.93-1.77.62-.36h0l3.38,1.38a.22.22,0,0,0,.29-.12h0a.22.22,0,0,0-.12-.29l-3.07-1.25.69-.41,1.81.74a.22.22,0,0,0,.29-.12h0a.22.22,0,0,0-.12-.29L76,91.09l.56-.34.89.37a.23.23,0,0,0,.29-.12h0a.21.21,0,0,0-.12-.29l-.57-.23.78-.47a.35.35,0,0,0,.13-.47h0a.34.34,0,0,0-.48-.12l-.79.46.07-.64a.22.22,0,0,0-.19-.25h0a.22.22,0,0,0-.24.2l-.12,1-.56.33.19-1.62a.23.23,0,0,0-.19-.25h0a.24.24,0,0,0-.25.2l-.23,2-.69.41.39-3.32a.22.22,0,0,0-.2-.24h0a.21.21,0,0,0-.25.19L74,91.45v0l-.66.39.51-4.4L70.3,90.05v-.79h0l2.91-2.21a.23.23,0,0,0,0-.31h0a.21.21,0,0,0-.31,0l-2.63,2v-.8l1.55-1.18a.22.22,0,0,0,0-.31h0a.22.22,0,0,0-.3,0l-1.28,1v-.65l.76-.58a.21.21,0,0,0,0-.31h0a.23.23,0,0,0-.31,0l-.49.37v-.91a.35.35,0,0,0-.35-.34h0a.35.35,0,0,0-.35.34v.92l-.51-.39a.23.23,0,0,0-.31,0h0a.23.23,0,0,0,0,.31l.79.6v.65l-1.3-1a.23.23,0,0,0-.31,0h0a.21.21,0,0,0,0,.31l1.57,1.2v.8l-2.66-2a.21.21,0,0,0-.31,0h0a.22.22,0,0,0,0,.31l2.91,2.21h0V90l-3.47-2.59.44,4.41-.7-.39h0l-.5-3.61a.22.22,0,0,0-.25-.19h0a.22.22,0,0,0-.19.25l.46,3.28-.7-.39-.27-1.93a.22.22,0,0,0-.25-.19h0a.22.22,0,0,0-.19.25l.22,1.59-.56-.32-.14-1a.23.23,0,0,0-.25-.19h0a.22.22,0,0,0-.18.25l.08.62-.79-.45a.35.35,0,0,0-.47.13h0A.33.33,0,0,0,62,90l.8.45-.59.26a.22.22,0,0,0-.12.29h0a.22.22,0,0,0,.29.12l.91-.4.56.32-1.5.65a.22.22,0,0,0-.11.29h0a.23.23,0,0,0,.29.12l1.82-.79.7.39L62,93.09a.22.22,0,0,0-.12.29h0a.23.23,0,0,0,.3.11l3.34-1.45,0,0,.62.35-3.95,1.71L66.41,96l-.86.51,0,0-3.38-1.38a.23.23,0,0,0-.29.12h0a.22.22,0,0,0,.12.29l3.1,1.26-.69.41-1.84-.75a.23.23,0,0,0-.29.12h0a.22.22,0,0,0,.12.29l1.52.62-.56.33-.92-.37a.21.21,0,0,0-.29.12h0a.2.2,0,0,0,.12.28l.6.25-.63.37a.34.34,0,0,0-.12.48h0a.34.34,0,0,0,.47.12l.65-.38-.07.59a.22.22,0,0,0,.19.25h0a.23.23,0,0,0,.25-.2l.1-.93.56-.33-.18,1.57a.23.23,0,0,0,.2.25h0a.22.22,0,0,0,.24-.2l.22-1.91.69-.41-.38,3.27a.22.22,0,0,0,.2.24h0a.21.21,0,0,0,.24-.19l.42-3.61.59-.35L66,100.83l3.57-2.58v.85s0,0,0,0l-2.91,2.21a.21.21,0,0,0,0,.31h0a.23.23,0,0,0,.31,0l2.66-2v.81L68,101.66a.23.23,0,0,0,0,.31h0a.21.21,0,0,0,.31,0l1.3-1v.65l-.79.6a.23.23,0,0,0,0,.31h0a.21.21,0,0,0,.31,0l.51-.39V103a.35.35,0,0,0,.35.34h0a.35.35,0,0,0,.35-.34v-.76l.47.37a.22.22,0,0,0,.31,0h0a.23.23,0,0,0,0-.31l-.75-.57V101l1.26,1a.22.22,0,0,0,.31,0h0a.21.21,0,0,0,0-.31l-1.53-1.17v-.8l2.62,2a.23.23,0,0,0,.31,0h0a.21.21,0,0,0,0-.31l-2.89-2.2V98.3l3.47,2.58-.45-4.49.8.45a0,0,0,0,0,0,0l.5,3.62a.22.22,0,0,0,.25.18h0a.22.22,0,0,0,.19-.25l-.47-3.31.7.4.28,2a.23.23,0,0,0,.25.19h0A.22.22,0,0,0,76,99.4l-.23-1.62.57.32.13,1a.22.22,0,0,0,.25.19h0A.22.22,0,0,0,77,99l-.09-.64.64.36A.35.35,0,0,0,78,98.6h0A.34.34,0,0,0,77.85,98.13Zm-1.31-3.94-3.23,1.4-.67-.37,2.39-1-2.4-1.08.64-.37Zm-4.68,3.32L70.3,96.35V94.7l1.35.75ZM68,90.78,69.6,92v1.57l-1.36-.77Zm2.76,3.41,1.31-.78,1.71.77-1.72.74Zm.87-1.32-1.37.81V92l1.61-1.16ZM69.41,94.2,68.05,95l-2-.89,1.8-.78ZM68.2,95.72l1.4-.83v1.43L68,97.48Zm5.08-7.25-.43,3.7-.65.38.32-2.78-2.22,1.6v-.75Zm-6.58,0,2.9,2.16v.76l-2.16-1.61.28,2.73-.65-.36ZM63.36,94.1l3.32-1.43.66.37-2.47,1.07,2.67,1.2-.64.38Zm3.26,5.73.39-3.4.66-.39-.29,2.49,2.22-1.61v.75Zm6.58,0-2.9-2.16V97l2.16,1.61-.29-2.82.65.36Z"/><path class="cls-1" d="M50.28,92.88l-.64-.36.54-.23a.23.23,0,0,0,.11-.28h0a.21.21,0,0,0-.28-.11l-.84.36-.55-.31L50,91.33a.21.21,0,0,0,.11-.28h0a.21.21,0,0,0-.28-.11l-1.72.74-.68-.38L50.38,90a.21.21,0,0,0,.11-.28h0a.21.21,0,0,0-.28-.11L47,91l-.6-.34,3.76-1.63-3.82-1.71L46.9,87h0l3.28,1.34a.21.21,0,0,0,.28-.12h0a.2.2,0,0,0-.12-.27l-3-1.22.67-.39L49.8,87a.22.22,0,0,0,.28-.12h0a.21.21,0,0,0-.11-.28L48.52,86l.55-.33.86.36a.22.22,0,0,0,.28-.12h0a.21.21,0,0,0-.11-.28l-.56-.23L50.3,85a.34.34,0,0,0,.12-.46h0a.33.33,0,0,0-.46-.11l-.77.45.07-.63a.2.2,0,0,0-.18-.23h0a.21.21,0,0,0-.24.18l-.11,1-.55.32.19-1.58a.21.21,0,0,0-.19-.23h0a.21.21,0,0,0-.24.18l-.22,1.91-.67.4.37-3.22a.21.21,0,0,0-.19-.24h0a.21.21,0,0,0-.24.19l-.41,3.52v0l-.64.38.49-4.27L42.94,85v-.77h0l2.82-2.14a.22.22,0,0,0,0-.3h0a.21.21,0,0,0-.3,0l-2.56,1.94v-.78l1.51-1.14a.21.21,0,0,0,0-.3h0a.22.22,0,0,0-.3,0l-1.25.94v-.63l.75-.56a.22.22,0,0,0,0-.3h0a.21.21,0,0,0-.3,0l-.48.36v-.88a.34.34,0,0,0-.33-.34h0a.34.34,0,0,0-.34.34v.89l-.5-.38a.21.21,0,0,0-.3,0h0a.2.2,0,0,0,0,.3l.76.58v.63l-1.26-1a.22.22,0,0,0-.3,0h0a.22.22,0,0,0,0,.3l1.53,1.16v.78l-2.58-2a.21.21,0,0,0-.3,0h0a.21.21,0,0,0,0,.3l2.82,2.14,0,0V85L38.9,82.47l.43,4.28-.68-.38h0l-.49-3.51a.23.23,0,0,0-.24-.18h0a.23.23,0,0,0-.19.25l.45,3.18-.68-.38-.26-1.88a.23.23,0,0,0-.24-.18h0a.21.21,0,0,0-.18.24L37,85.45l-.55-.31-.13-.92a.22.22,0,0,0-.24-.19h0a.22.22,0,0,0-.18.25l.08.59-.77-.43a.34.34,0,0,0-.46.13h0a.34.34,0,0,0,.13.46l.78.43-.58.25A.22.22,0,0,0,35,86h0a.22.22,0,0,0,.29.11l.88-.38.55.31-1.46.63a.24.24,0,0,0-.11.29h0a.22.22,0,0,0,.28.12l1.76-.77.68.38-3,1.29a.22.22,0,0,0-.11.29h0a.21.21,0,0,0,.28.11L38.3,87l0,0,.6.34L35.09,89l4.08,1.84-.83.49,0,0L35,89.93a.21.21,0,0,0-.28.11h0a.21.21,0,0,0,.11.28l3,1.23L37.2,92l-1.78-.72a.21.21,0,0,0-.28.11h0a.22.22,0,0,0,.12.28l1.47.6-.54.32-.89-.36a.22.22,0,0,0-.28.12h0a.22.22,0,0,0,.12.28l.59.24-.62.36a.34.34,0,0,0-.12.46h0a.34.34,0,0,0,.46.12l.63-.38L36,94a.21.21,0,0,0,.18.24h0a.21.21,0,0,0,.24-.19l.11-.91.54-.32-.18,1.53a.22.22,0,0,0,.19.24h0a.21.21,0,0,0,.24-.19l.21-1.86.67-.39-.36,3.17a.21.21,0,0,0,.18.24h0a.22.22,0,0,0,.24-.19l.41-3.5.57-.34-.47,4L42.27,93v.83h0L39.42,96a.22.22,0,0,0,0,.3h0a.22.22,0,0,0,.3,0l2.58-2v.78l-1.53,1.17a.22.22,0,0,0,0,.3h0a.2.2,0,0,0,.3,0l1.26-1v.63l-.77.59a.22.22,0,0,0,0,.3h0a.22.22,0,0,0,.3,0l.5-.39v.72a.34.34,0,0,0,.34.33h0a.33.33,0,0,0,.33-.33v-.73l.47.35a.22.22,0,0,0,.3,0h0a.2.2,0,0,0,0-.3l-.73-.55v-.63l1.23.93a.22.22,0,0,0,.3,0h0a.22.22,0,0,0,0-.3l-1.5-1.13v-.78l2.55,1.93a.22.22,0,0,0,.3,0h0a.2.2,0,0,0,0-.3L42.94,93.8V93l3.38,2.51-.44-4.37.78.44v0l.49,3.51a.22.22,0,0,0,.25.18h0a.22.22,0,0,0,.19-.24l-.45-3.21.68.38.26,1.9a.23.23,0,0,0,.25.19h0a.22.22,0,0,0,.19-.24l-.22-1.57.55.31.13,1a.21.21,0,0,0,.24.18h0a.22.22,0,0,0,.19-.24l-.09-.63.62.35a.33.33,0,0,0,.46-.13h0A.33.33,0,0,0,50.28,92.88ZM49,89.05l-3.13,1.36-.65-.36,2.32-1-2.33-1,.62-.37Zm-4.54,3.22-1.52-1.13v-1.6l1.32.74Zm-3.7-6.53,1.51,1.13V88.4L41,87.65ZM43.43,89l1.28-.75,1.65.75-1.66.71Zm.85-1.27-1.34.78V86.9l1.57-1.13Zm-2.19,1.29-1.32.78L38.85,89l1.75-.75Zm-1.18,1.48,1.36-.81v1.39l-1.56,1.13Zm4.94-7.05-.42,3.6-.64.37.32-2.71-2.17,1.56v-.72Zm-6.4,0,2.82,2.1v.73l-2.1-1.56.27,2.65L39.81,87ZM36.22,89l3.21-1.39.65.36-2.4,1,2.59,1.17-.62.37Zm3.15,5.56.39-3.3.63-.38-.28,2.42,2.16-1.56v.73Zm6.4,0-2.83-2.1v-.73L45,93.3l-.27-2.74.62.35Z"/><path class="cls-1" d="M102.15,113.26l-.51-.29.43-.19a.17.17,0,0,0,.09-.23h0a.17.17,0,0,0-.23-.09l-.68.29-.44-.25L102,112a.19.19,0,0,0,.09-.23h0a.19.19,0,0,0-.23-.09l-1.38.61-.55-.31,2.36-1a.17.17,0,0,0,.09-.23h0a.17.17,0,0,0-.23-.09l-2.61,1.13-.48-.27,3-1.31L99,108.79l.48-.28h0l2.65,1.08a.17.17,0,0,0,.22-.09h0a.19.19,0,0,0-.1-.23l-2.4-1,.54-.32,1.42.58a.17.17,0,0,0,.22-.09h0a.17.17,0,0,0-.09-.23l-1.17-.47.44-.26.7.28a.17.17,0,0,0,.23-.09h0a.16.16,0,0,0-.1-.22l-.44-.19.61-.36a.26.26,0,0,0,.09-.37h0a.27.27,0,0,0-.37-.1l-.62.37.06-.51a.17.17,0,0,0-.15-.19h0a.18.18,0,0,0-.19.15l-.09.78-.44.26.15-1.28a.18.18,0,0,0-.15-.19h0a.18.18,0,0,0-.19.15l-.18,1.54-.54.32.3-2.6a.17.17,0,0,0-.15-.19h0a.18.18,0,0,0-.19.15L99.15,108v0l-.52.3.4-3.44-2.8,2v-.61h0l2.27-1.72a.19.19,0,0,0,0-.25h0a.17.17,0,0,0-.24,0l-2.07,1.57v-.62l1.22-.93a.16.16,0,0,0,0-.24h0a.17.17,0,0,0-.24,0l-1,.76v-.51l.61-.45a.19.19,0,0,0,0-.25h0a.17.17,0,0,0-.24,0l-.39.3v-.72a.27.27,0,0,0-.27-.27h0a.27.27,0,0,0-.27.27v.72l-.4-.3a.16.16,0,0,0-.24,0h0a.17.17,0,0,0,0,.24l.62.47v.51l-1-.78a.17.17,0,0,0-.24,0h0a.16.16,0,0,0,0,.24l1.23.94v.63l-2.08-1.58a.16.16,0,0,0-.24,0h0a.18.18,0,0,0,0,.24l2.27,1.73h0v.58l-2.72-2,.35,3.45-.55-.3h0l-.4-2.83a.18.18,0,0,0-.19-.15h0a.18.18,0,0,0-.15.19l.36,2.57-.54-.31L91.62,106a.18.18,0,0,0-.19-.15h0a.19.19,0,0,0-.15.2l.18,1.25L91,107l-.1-.75a.18.18,0,0,0-.2-.15h0a.18.18,0,0,0-.15.2l.07.48-.63-.35a.28.28,0,0,0-.37.1h0a.27.27,0,0,0,.11.37l.63.36-.47.2a.17.17,0,0,0-.09.23h0a.17.17,0,0,0,.23.09l.71-.31.45.25-1.18.51a.18.18,0,0,0-.08.23h0a.18.18,0,0,0,.23.09l1.42-.62.54.3-2.39,1a.17.17,0,0,0-.09.23h0a.17.17,0,0,0,.23.09l2.62-1.14h0l.49.27-3.1,1.34,3.29,1.48-.67.4h0l-2.65-1.08a.17.17,0,0,0-.23.09h0a.16.16,0,0,0,.1.22l2.42,1-.54.32-1.44-.58a.16.16,0,0,0-.22.09h0a.17.17,0,0,0,.1.22l1.19.49-.44.26-.72-.3a.19.19,0,0,0-.23.1h0a.17.17,0,0,0,.09.22l.48.19-.5.3a.27.27,0,0,0-.1.37h0a.28.28,0,0,0,.38.09l.5-.3-.05.47a.18.18,0,0,0,.15.19h0a.17.17,0,0,0,.19-.15l.08-.73.44-.26-.14,1.23a.17.17,0,0,0,.15.19h0a.18.18,0,0,0,.19-.16l.18-1.5.54-.32-.3,2.56a.17.17,0,0,0,.15.19h0a.18.18,0,0,0,.19-.16l.33-2.82.46-.28-.38,3.22,2.8-2V114h0l-2.28,1.73a.17.17,0,0,0,0,.24h0a.17.17,0,0,0,.24,0l2.08-1.58v.62l-1.23.94a.19.19,0,0,0,0,.25h0a.17.17,0,0,0,.24,0l1-.77V116l-.62.47a.17.17,0,0,0,0,.24h0a.19.19,0,0,0,.25,0l.4-.31v.58a.27.27,0,0,0,.27.27h0a.27.27,0,0,0,.27-.27v-.59l.38.28a.16.16,0,0,0,.24,0h0a.18.18,0,0,0,0-.24l-.59-.44v-.51l1,.75a.18.18,0,0,0,.25,0h0a.17.17,0,0,0,0-.24l-1.21-.92v-.63L98.29,116a.17.17,0,0,0,.24,0h0a.17.17,0,0,0,0-.24L96.23,114v-.61l2.73,2-.36-3.52.63.35v0l.4,2.83a.17.17,0,0,0,.2.15h0a.18.18,0,0,0,.15-.2l-.36-2.59.55.31.21,1.53a.17.17,0,0,0,.2.15h0a.17.17,0,0,0,.15-.2l-.18-1.27.45.25.11.77a.17.17,0,0,0,.19.15h0a.18.18,0,0,0,.15-.2l-.07-.5.5.28a.28.28,0,0,0,.37-.1h0A.28.28,0,0,0,102.15,113.26Zm-1-3.09-2.53,1.1-.52-.3,1.87-.8-1.88-.85.5-.3Zm-3.66,2.6-1.23-.91v-1.29l1.07.59Zm-3-5.27,1.22.91v1.23l-1.06-.6Zm2.16,2.67,1-.61,1.33.6-1.34.58Zm.68-1-1.08.64v-1.34l1.27-.91Zm-1.77,1.05-1.06.63-1.54-.7,1.4-.6Zm-1,1.19,1.1-.65v1.12l-1.26.91Zm4-5.68-.34,2.89-.51.31L98,106.7,96.23,108v-.58Zm-5.16,0,2.27,1.69v.6L94,106.68l.22,2.13-.51-.28Zm-2.61,4.45L93.4,109l.52.29-1.94.84,2.1.94-.51.29Zm2.54,4.49.31-2.67.52-.3L94,113.57l1.74-1.26v.59Zm5.16,0-2.28-1.69v-.59l1.7,1.26-.22-2.21.5.28Z"/></g></g></svg>