<svg xmlns="http://www.w3.org/2000/svg" viewBox="0 0 146.13 124.88"><defs><style>.cls-1{fill:#fcd639;stroke:#020202;}.cls-1,.cls-2{stroke-miterlimit:10;}.cls-2{fill:#707070;stroke:#1d1d1b;}</style></defs><g id="Layer_2" data-name="Layer 2"><g id="Layer_1-2" data-name="Layer 1"><polygon class="cls-1" points="101.88 61.44 92.09 50.93 63.61 77.47 63.65 77.51 63.61 77.53 79.21 94.28 69.53 108.23 59.07 123.32 74.94 114.1 89.7 105.53 100.65 96.22 83.88 78.22 101.88 61.44"/><path class="cls-2" d="M145.63,41.87a30,30,0,0,0-30-30h-.46a35.66,35.66,0,0,0-53.31,1.21,30,30,0,0,0-36,16.84A21.17,21.17,0,1,0,19.14,71.7v.17H119.66v-.28A30,30,0,0,0,145.63,41.87Z"/></g></g></svg>