<svg xmlns="http://www.w3.org/2000/svg" viewBox="0 0 181.04 108.19"><defs><style>.cls-1{fill:#fcd639;stroke:#020202;}.cls-1,.cls-2{stroke-miterlimit:10;}.cls-2{fill:#efefef;stroke:#1d1d1b;}</style></defs><g id="Layer_2" data-name="Layer 2"><g id="Layer_1-2" data-name="Layer 1"><circle class="cls-1" cx="53.85" cy="53.85" r="26.79"/><line class="cls-1" x1="27.05" y1="71.36" x2="10.52" y2="85.24"/><line class="cls-1" x1="92.66" y1="16.27" x2="76.12" y2="30.15"/><line class="cls-1" x1="90.11" y1="94.16" x2="75.74" y2="78.04"/><line class="cls-1" x1="33.07" y1="29.23" x2="17.81" y2="13.96"/><line class="cls-1" x1="107.69" y1="52.95" x2="86.1" y2="52.95"/><line class="cls-1" x1="21.59" y1="52.95" y2="52.95"/><line class="cls-1" x1="53.85" y1="86.1" x2="53.85" y2="107.69"/><line class="cls-1" x1="53.85" x2="53.85" y2="21.59"/><path class="cls-2" d="M180.54,77.57a30.12,30.12,0,0,0-30.12-30.12l-.46,0a35.81,35.81,0,0,0-53.52,1.22,30.07,30.07,0,0,0-36.15,16.9,21.49,21.49,0,0,0-4.19-.42,21.25,21.25,0,0,0-2.55,42.35v.17H154.46v-.28A30.11,30.11,0,0,0,180.54,77.57Z"/></g></g></svg>