<svg xmlns="http://www.w3.org/2000/svg" viewBox="0 0 112.57 81.87"><defs><style>.cls-1{fill:#49484a;}</style></defs><g id="Layer_2" data-name="Layer 2"><g id="Layer_1-2" data-name="Layer 1"><rect class="cls-1" y="46.43" width="106.98" height="7.17" rx="3.58"/><rect class="cls-1" x="20.31" y="74.7" width="70.59" height="7.17" rx="3.58"/><rect class="cls-1" x="13.1" y="60.57" width="58.13" height="7.17" rx="3.58"/><rect class="cls-1" x="98.07" y="60.57" width="14.5" height="7.17" rx="3.58"/><rect class="cls-1" x="77.11" y="60.57" width="14.59" height="7.17" rx="3.58"/><path class="cls-1" d="M62.73,57.14a3.53,3.53,0,0,1,3.49-3.58H18.57a3.59,3.59,0,0,1,0,7.17H66.22A3.54,3.54,0,0,1,62.73,57.14Z"/><path class="cls-1" d="M60.92,71.32c0-2,.71-3.59,1.58-3.59H41c.87,0,1.58,1.61,1.58,3.59S41.86,74.9,41,74.9H62.5C61.63,74.9,60.92,73.3,60.92,71.32Z"/><path class="cls-1" d="M93.3,47.54a42.62,42.62,0,0,0,.26-4.68C93.56,19.19,74,0,49.91,0S6.25,19.19,6.25,42.86a42.62,42.62,0,0,0,.26,4.68Z"/></g></g></svg>